<svg width="33" height="33" viewBox="0 0 33 33" fill="none" xmlns="http://www.w3.org/2000/svg">
<path d="M17.9055 4.45996C18.1963 3.70497 18.7091 3.05589 19.3764 2.5984C20.0437 2.14091 20.834 1.89651 21.643 1.89746" stroke="#EFEFEF" stroke-width="2" stroke-linecap="round" stroke-linejoin="round"/>
<path d="M27.9556 20.7599C26.3806 24.6099 23.5306 27.3974 21.1431 27.3974H12.1431C8.64307 27.3974 4.14307 21.3974 4.14307 14.8974C4.14358 13.4498 4.56301 12.0333 5.35075 10.8188C6.13848 9.6043 7.26085 8.64372 8.58242 8.05298C9.90399 7.46224 11.3683 7.26658 12.7986 7.48961C14.2289 7.71264 15.5641 8.34483 16.6431 9.30989V9.30989C17.4068 8.62566 18.3028 8.10531 19.2755 7.78099C20.2483 7.45668 21.2773 7.33529 22.2988 7.42432C23.3203 7.51335 24.3128 7.81092 25.2148 8.29863C26.1168 8.78635 26.9092 9.45385 27.5431 10.2599V10.2599C26.6244 10.8146 25.8713 11.6056 25.3623 12.5504C24.8533 13.4953 24.607 14.5593 24.6491 15.6317C24.6912 16.7041 25.0202 17.7455 25.6018 18.6475C26.1833 19.5494 26.9962 20.2789 27.9556 20.7599V20.7599Z" stroke="#EFEFEF" stroke-width="2" stroke-linecap="round" stroke-linejoin="round"/>
</svg>
