<svg width="33" height="33" viewBox="0 0 33 33" fill="none" xmlns="http://www.w3.org/2000/svg">
<path d="M5.61816 28.4099C5.61969 28.5859 5.66765 28.7584 5.75721 28.91C5.84677 29.0615 5.97475 29.1868 6.12821 29.273C6.28167 29.3592 6.45518 29.4034 6.6312 29.4011C6.80722 29.3988 6.97951 29.3501 7.13066 29.2599L28.1057 17.2474C28.26 17.1654 28.389 17.043 28.479 16.8933C28.569 16.7435 28.6166 16.5721 28.6166 16.3974C28.6166 16.2227 28.569 16.0513 28.479 15.9015C28.389 15.7518 28.26 15.6294 28.1057 15.5474L7.13066 3.53489C6.97951 3.44467 6.80722 3.39594 6.6312 3.39364C6.45518 3.39134 6.28167 3.43554 6.12821 3.52179C5.97475 3.60803 5.84677 3.73325 5.75721 3.8848C5.66765 4.03636 5.61969 4.20886 5.61816 4.38489V28.4099Z" stroke="#EFEFEF" stroke-width="2" stroke-linecap="round" stroke-linejoin="round"/>
<path d="M5.91797 3.67236L22.6305 20.3849" stroke="#EFEFEF" stroke-width="2" stroke-linecap="round" stroke-linejoin="round"/>
<path d="M5.91797 29.1224L22.6305 12.4099" stroke="#EFEFEF" stroke-width="2" stroke-linecap="round" stroke-linejoin="round"/>
</svg>
