<svg width="33" height="33" viewBox="0 0 33 33" fill="none" xmlns="http://www.w3.org/2000/svg">
<path d="M16.6431 21.3975C19.4045 21.3975 21.6431 19.1589 21.6431 16.3975C21.6431 13.636 19.4045 11.3975 16.6431 11.3975C13.8816 11.3975 11.6431 13.636 11.6431 16.3975C11.6431 19.1589 13.8816 21.3975 16.6431 21.3975Z" stroke="#EFEFEF" stroke-width="2" stroke-miterlimit="10"/>
<path d="M22.1431 4.89746H11.1431C7.82936 4.89746 5.14307 7.58375 5.14307 10.8975V21.8975C5.14307 25.2112 7.82936 27.8975 11.1431 27.8975H22.1431C25.4568 27.8975 28.1431 25.2112 28.1431 21.8975V10.8975C28.1431 7.58375 25.4568 4.89746 22.1431 4.89746Z" stroke="#EFEFEF" stroke-width="2" stroke-linecap="round" stroke-linejoin="round"/>
<path d="M23.1431 11.3975C23.9715 11.3975 24.6431 10.7259 24.6431 9.89746C24.6431 9.06903 23.9715 8.39746 23.1431 8.39746C22.3146 8.39746 21.6431 9.06903 21.6431 9.89746C21.6431 10.7259 22.3146 11.3975 23.1431 11.3975Z" fill="#EFEFEF"/>
</svg>
