<svg width="33" height="33" viewBox="0 0 33 33" fill="none" xmlns="http://www.w3.org/2000/svg">
<path d="M16.643 11.3974C16.643 8.64743 18.9555 6.35993 21.7055 6.39743C22.6686 6.40855 23.6079 6.69758 24.4107 7.22977C25.2134 7.76197 25.8453 8.51468 26.2305 9.39743H30.643L26.6055 13.4349C26.345 17.4906 24.5496 21.2949 21.5845 24.0743C18.6194 26.8536 14.7071 28.3994 10.643 28.3974C6.64301 28.3974 5.64301 26.8974 5.64301 26.8974C5.64301 26.8974 9.64301 25.3974 11.643 22.3974C11.643 22.3974 3.64301 18.3974 5.64301 7.39743C5.64301 7.39743 10.643 12.3974 16.643 13.3974V11.3974Z" stroke="#EFEFEF" stroke-width="2" stroke-linecap="round" stroke-linejoin="round"/>
</svg>
