<svg width="33" height="33" viewBox="0 0 33 33" fill="none" xmlns="http://www.w3.org/2000/svg">
<path d="M20.6431 16.3975L14.6431 12.3975V20.3975L20.6431 16.3975Z" stroke="#EFEFEF" stroke-width="2" stroke-linecap="round" stroke-linejoin="round"/>
<path d="M3.64307 16.3973C3.64307 20.1223 4.03057 22.2973 4.31807 23.4223C4.39734 23.7276 4.54724 24.0099 4.75569 24.2466C4.96413 24.4833 5.22528 24.6676 5.51807 24.7848C9.70557 26.3848 16.6431 26.3473 16.6431 26.3473C16.6431 26.3473 23.5806 26.3848 27.7681 24.7848C28.0609 24.6676 28.322 24.4833 28.5304 24.2466C28.7389 24.0099 28.8888 23.7276 28.9681 23.4223C29.2556 22.2973 29.6431 20.1223 29.6431 16.3973C29.6431 12.6723 29.2556 10.4973 28.9681 9.37234C28.8888 9.06709 28.7389 8.78475 28.5304 8.54808C28.322 8.31141 28.0609 8.12704 27.7681 8.00984C23.5806 6.40984 16.6431 6.44734 16.6431 6.44734C16.6431 6.44734 9.70557 6.40984 5.51807 8.00984C5.22528 8.12704 4.96413 8.31141 4.75569 8.54808C4.54724 8.78475 4.39734 9.06709 4.31807 9.37234C4.03057 10.4973 3.64307 12.6723 3.64307 16.3973Z" stroke="#EFEFEF" stroke-width="2" stroke-linecap="round" stroke-linejoin="round"/>
</svg>
