<svg width="117" height="92" viewBox="0 0 117 92" fill="none" xmlns="http://www.w3.org/2000/svg">
<path d="M57.1499 91.1421L71.0125 91.1421C71.6243 91.1421 72.2025 90.8621 72.5818 90.3821L115.711 35.8017C115.99 35.4487 116.141 35.0118 116.141 34.5618L116.141 1.99995C116.141 0.895386 115.246 -4.57764e-05 114.141 -4.57764e-05H77.2829C76.1783 -4.57764e-05 75.2829 0.895386 75.2829 1.99995L75.2829 33.2566C75.2829 34.3612 76.1783 35.2566 77.2829 35.2566L93.4159 35.2566C95.0916 35.2566 96.0243 37.1937 94.9795 38.5037L55.5863 87.895C54.5415 89.205 55.4742 91.1421 57.1499 91.1421Z" fill="#E4572E"/>
<path d="M4.1534 91.1421L18.0161 91.1421C18.6279 91.1421 19.206 90.8621 19.5853 90.3821L62.7141 35.8017C62.9931 35.4487 63.1448 35.0118 63.1448 34.5618L63.1448 1.99995C63.1448 0.895386 62.2494 -4.57764e-05 61.1448 -4.57764e-05H24.2864C23.1819 -4.57764e-05 22.2864 0.895386 22.2864 1.99995L22.2864 33.2566C22.2864 34.3612 23.1819 35.2566 24.2864 35.2566L40.4195 35.2566C42.0951 35.2566 43.0279 37.1937 41.9831 38.5037L2.58982 87.895C1.54499 89.205 2.47776 91.1421 4.1534 91.1421Z" fill="#E4572E"/>
</svg>
