<svg width="117" height="92" viewBox="0 0 117 92" fill="none" xmlns="http://www.w3.org/2000/svg">
<path d="M58.9914 0H45.1287C44.517 0 43.9388 0.280007 43.5595 0.760019L0.43078 55.3403C0.151772 55.6934 0 56.1303 0 56.5803V89.1421C0 90.2467 0.89543 91.1421 2 91.1421H38.8584C39.963 91.1421 40.8584 90.2467 40.8584 89.1421V57.8855C40.8584 56.7809 39.963 55.8855 38.8584 55.8855H22.7254C21.0497 55.8855 20.117 53.9484 21.1618 52.6384L60.555 3.24708C61.5998 1.93708 60.6671 0 58.9914 0Z" fill="#E4572E"/>
<path d="M111.988 0H98.1252C97.5134 0 96.9353 0.280007 96.556 0.760019L53.4272 55.3403C53.1482 55.6934 52.9965 56.1303 52.9965 56.5803V89.1421C52.9965 90.2467 53.8919 91.1421 54.9965 91.1421H91.8549C92.9594 91.1421 93.8549 90.2467 93.8549 89.1421V57.8855C93.8549 56.7809 92.9594 55.8855 91.8549 55.8855H75.7218C74.0462 55.8855 73.1134 53.9484 74.1582 52.6384L113.551 3.24708C114.596 1.93708 113.664 0 111.988 0Z" fill="#E4572E"/>
</svg>
